<svg xmlns="http://www.w3.org/2000/svg" width="43.002" height="28.478" viewBox="0 0 43.002 28.478"><defs><style>.a{fill:none;stroke:#fff;stroke-linecap:round;stroke-linejoin:round;stroke-miterlimit:10;stroke-width:3px;}</style></defs><g transform="translate(-679.859 -275.166)"><path class="a" d="M721.154,283.628a5.962,5.962,0,0,0-5.679-5.954c-.094,0-.188-.007-.283-.007h0c-.048,0-.1,0-.143,0s-.094,0-.14,0a5.961,5.961,0,0,0-5.678,5.954V286.7h1.752a5.5,5.5,0,0,0,8.419,0h1.752Z" transform="translate(-22.24 -1)"/><path class="a" d="M700.884,335.237a11.593,11.593,0,0,0-19.525,8.455c.149.036,10,0,10,0" transform="translate(0 -43.434)"/><circle class="a" cx="5.95" cy="5.95" r="5.95" transform="translate(702.866 277.666)"/><path class="a" d="M765.224,349.1s-9.967.105-10.058,0a12.543,12.543,0,1,1,25.087,0c.006-.091-3.858,0-3.858,0" transform="translate(-58.894 -46.993)"/></g></svg>