<svg xmlns="http://www.w3.org/2000/svg" width="29.686" height="27.193" viewBox="0 0 29.686 27.193"><defs><style>.a{fill:none;stroke-miterlimit:10;}.a,.b{stroke:#fff;stroke-width:3px;}.b{fill:rgba(0,0,0,0);stroke-linecap:round;stroke-linejoin:round;}</style></defs><g transform="translate(0 1.073)"><g transform="translate(0 14.813)"><path class="a" d="M742.758,754.337h0a2.044,2.044,0,0,0-2.924,0l-4.9,4.986h-9.393l-2.577,4.205h12.628c.033,0,.064,0,.1-.005a2.041,2.041,0,0,0,1.564-.611l5.508-5.6A2.128,2.128,0,0,0,742.758,754.337Z" transform="translate(-715.39 -753.721)"/><path class="a" d="M669.531,771.82H677.1l2.507-4.205h4.8a2.1,2.1,0,0,0,0-4.206H673.626" transform="translate(-669.531 -762.013)"/></g><path class="b" d="M17.437,11l8.224-7.95" transform="translate(0 -2)"/><path class="b" d="M25.661,11l-8.224-7.95" transform="translate(0 -2)"/></g></svg>