<svg xmlns="http://www.w3.org/2000/svg" width="41.5" height="37.62" viewBox="0 0 41.5 37.62"><defs><style>.a{fill:none;stroke:#fff;stroke-miterlimit:10;stroke-width:3px;}</style></defs><g transform="translate(-669.531 -656.001)"><path class="a" d="M8.279,0h0a8.279,8.279,0,0,1,8.279,8.279V9.1a2.28,2.28,0,0,1-2.28,2.28h-12A2.28,2.28,0,0,1,0,9.1V8.279A8.279,8.279,0,0,1,8.279,0Z" transform="translate(685.377 663.805)"/><g transform="translate(669.531 678.331)"><path class="a" d="M751.269,754.587h0a2.957,2.957,0,0,0-4.181,0l-7.011,7.011H726.645l-3.684,5.913h18.057c.047,0,.092,0,.138-.007a2.946,2.946,0,0,0,2.237-.859l7.877-7.876A2.957,2.957,0,0,0,751.269,754.587Z" transform="translate(-712.135 -753.721)"/><path class="a" d="M669.531,775.236h10.826l3.585-5.913h6.869a2.957,2.957,0,1,0,0-5.914H675.386" transform="translate(-669.531 -761.446)"/></g><path class="a" d="M0,0H7.745a0,0,0,0,1,0,0V2.432A3.872,3.872,0,0,1,3.872,6.3h0A3.872,3.872,0,0,1,0,2.432V0A0,0,0,0,1,0,0Z" transform="translate(689.678 657.501)"/></g></svg>