<svg xmlns="http://www.w3.org/2000/svg" width="147.125" height="18.069" viewBox="0 0 147.125 18.069">
  <g id="Group_181" data-name="Group 181" transform="translate(-0.875)">
    <path id="Path_100" data-name="Path 100" d="M4.075-6.938a2.962,2.962,0,0,1,1.65.463,3.053,3.053,0,0,1,1.1,1.269,4.176,4.176,0,0,1,.387,1.831A4.245,4.245,0,0,1,6.831-1.55,3.018,3.018,0,0,1,5.744-.275,2.888,2.888,0,0,1,4.125.188,2.8,2.8,0,0,1,2.388-.35V3H.875V-6.75H2.213v.475A2.682,2.682,0,0,1,4.075-6.938ZM3.9-1.163a1.469,1.469,0,0,0,1.275-.613,2.692,2.692,0,0,0,.438-1.6,2.643,2.643,0,0,0-.45-1.594A1.521,1.521,0,0,0,3.85-5.588a1.391,1.391,0,0,0-1.231.594,2.829,2.829,0,0,0-.406,1.619A2.823,2.823,0,0,0,2.619-1.75,1.448,1.448,0,0,0,3.9-1.163ZM11.695.188a3.4,3.4,0,0,1-1.762-.45A3.059,3.059,0,0,1,8.751-1.525a3.98,3.98,0,0,1-.419-1.85,3.922,3.922,0,0,1,.425-1.856A3.11,3.11,0,0,1,9.945-6.488a3.378,3.378,0,0,1,1.75-.45,3.366,3.366,0,0,1,1.763.456,3.111,3.111,0,0,1,1.181,1.263,3.942,3.942,0,0,1,.419,1.844,3.98,3.98,0,0,1-.419,1.85A3.047,3.047,0,0,1,13.451-.263,3.411,3.411,0,0,1,11.695.188ZM13.47-3.375a2.469,2.469,0,0,0-.456-1.575,1.584,1.584,0,0,0-1.319-.575,1.563,1.563,0,0,0-1.319.575,2.518,2.518,0,0,0-.444,1.575,2.493,2.493,0,0,0,.45,1.575,1.566,1.566,0,0,0,1.313.575,1.57,1.57,0,0,0,1.319-.587A2.479,2.479,0,0,0,13.47-3.375ZM25.3-6.75,23.24,0H21.978L20.54-4.65,19.015,0H17.84L15.778-6.763l1.487.013L18.59-2.425,19.915-6.75h1.263l1.337,4.325L23.828-6.75Zm2.245,3.8a2.078,2.078,0,0,0,.531,1.269,1.6,1.6,0,0,0,1.206.456,1.8,1.8,0,0,0,.944-.244,1.619,1.619,0,0,0,.631-.719l1.487.45A2.939,2.939,0,0,1,31.16-.331a3.317,3.317,0,0,1-1.8.519,3.594,3.594,0,0,1-1.806-.444,3.052,3.052,0,0,1-1.206-1.238A3.766,3.766,0,0,1,25.923-3.3a4.142,4.142,0,0,1,.419-1.9,3.1,3.1,0,0,1,1.175-1.281,3.357,3.357,0,0,1,1.769-.456,2.887,2.887,0,0,1,2.325.969,3.847,3.847,0,0,1,.825,2.581q0,.288-.013.438Zm1.737-2.675a1.621,1.621,0,0,0-1.156.394,1.912,1.912,0,0,0-.544,1.094H30.9a1.87,1.87,0,0,0-.475-1.119A1.563,1.563,0,0,0,29.285-5.625Zm6.67-.775a2.136,2.136,0,0,1,.631-.287,2.648,2.648,0,0,1,.719-.1,2.378,2.378,0,0,1,.438.038v1.4a1.767,1.767,0,0,0-.475-.062,1.9,1.9,0,0,0-.925.225,1.94,1.94,0,0,0-.888,1.838V0H33.943V-6.75H35.28v1.087A2.28,2.28,0,0,1,35.955-6.4Zm4.1,3.45a2.078,2.078,0,0,0,.531,1.269,1.6,1.6,0,0,0,1.206.456,1.8,1.8,0,0,0,.944-.244,1.619,1.619,0,0,0,.631-.719l1.487.45A2.939,2.939,0,0,1,43.663-.331a3.317,3.317,0,0,1-1.8.519,3.594,3.594,0,0,1-1.806-.444A3.052,3.052,0,0,1,38.85-1.494,3.766,3.766,0,0,1,38.425-3.3a4.142,4.142,0,0,1,.419-1.9,3.1,3.1,0,0,1,1.175-1.281,3.357,3.357,0,0,1,1.769-.456,2.887,2.887,0,0,1,2.325.969,3.847,3.847,0,0,1,.825,2.581q0,.288-.013.438Zm1.737-2.675a1.621,1.621,0,0,0-1.156.394,1.912,1.912,0,0,0-.544,1.094H43.4a1.87,1.87,0,0,0-.475-1.119A1.563,1.563,0,0,0,41.788-5.625ZM52.408-9V0H51.07V-.488a2.809,2.809,0,0,1-1.912.675,2.888,2.888,0,0,1-1.619-.463A3.018,3.018,0,0,1,46.451-1.55a4.245,4.245,0,0,1-.381-1.825,4.176,4.176,0,0,1,.388-1.831,3.053,3.053,0,0,1,1.1-1.269,2.963,2.963,0,0,1,1.65-.463,2.732,2.732,0,0,1,1.688.525V-9ZM49.383-1.163a1.448,1.448,0,0,0,1.281-.588,2.823,2.823,0,0,0,.406-1.625,2.829,2.829,0,0,0-.406-1.619,1.391,1.391,0,0,0-1.231-.594,1.534,1.534,0,0,0-1.325.619,2.643,2.643,0,0,0-.45,1.594A2.7,2.7,0,0,0,48.1-1.781,1.476,1.476,0,0,0,49.383-1.163ZM60.1-6.938a2.962,2.962,0,0,1,1.65.463,3.053,3.053,0,0,1,1.1,1.269,4.176,4.176,0,0,1,.388,1.831,4.245,4.245,0,0,1-.381,1.825A3.018,3.018,0,0,1,61.766-.275a2.888,2.888,0,0,1-1.619.463,2.809,2.809,0,0,1-1.912-.675V0H56.9V-9H58.41v2.588A2.732,2.732,0,0,1,60.1-6.938Zm-.175,5.775A1.469,1.469,0,0,0,61.2-1.775a2.692,2.692,0,0,0,.438-1.6,2.643,2.643,0,0,0-.45-1.594,1.521,1.521,0,0,0-1.312-.619,1.391,1.391,0,0,0-1.231.594,2.829,2.829,0,0,0-.406,1.619,2.823,2.823,0,0,0,.406,1.625A1.448,1.448,0,0,0,59.923-1.163ZM70.38-6.75,66.618,3l-1.413-.012L66.305,0l.012-.05-2.725-6.7h1.562l1.887,4.812L68.868-6.75Zm8.753,4.8h-3.55L74.97,0H73.42l2.838-9H78.47l2.838,9h-1.55Zm-.45-1.413L77.345-7.538,76.033-3.363ZM87.99-6.75,84.228,3l-1.413-.012L83.915,0l.012-.05L81.2-6.75h1.563l1.887,4.812L86.478-6.75ZM93.048,0V-.888a2.8,2.8,0,0,1-1.006.819,3.367,3.367,0,0,1-1.406.256,2.255,2.255,0,0,1-1.619-.575,2,2,0,0,1-.606-1.525,1.862,1.862,0,0,1,1.3-1.863,6.787,6.787,0,0,1,1.15-.319q.625-.119,1.588-.256l.425-.062a1.145,1.145,0,0,0-.425-.869,1.519,1.519,0,0,0-.937-.281,1.815,1.815,0,0,0-.925.231,1.3,1.3,0,0,0-.575.706L88.648-5.05a2.988,2.988,0,0,1,1.094-1.363,3.109,3.109,0,0,1,1.819-.525,3.158,3.158,0,0,1,1.719.431,2.231,2.231,0,0,1,.944,1.256,4.343,4.343,0,0,1,.137,1.188V0Zm-.412-1.9a2.732,2.732,0,0,0,.238-1.275q-.638.088-1.138.175t-.912.2a1.832,1.832,0,0,0-.694.356.729.729,0,0,0-.244.569.8.8,0,0,0,.287.619,1.161,1.161,0,0,0,.8.256,1.975,1.975,0,0,0,.975-.25A1.786,1.786,0,0,0,92.635-1.9Zm8.845-4.35a2.165,2.165,0,0,1,.675,1.2,9,9,0,0,1,.15,1.787V0H100.78V-3.2a2.639,2.639,0,0,0-.538-1.937,1.489,1.489,0,0,0-1.063-.388,1.4,1.4,0,0,0-.95.313,1.459,1.459,0,0,0-.537.938,8.084,8.084,0,0,0-.075,1.337V0H96.105V-6.75h1.338V-6l.137-.163a2,2,0,0,1,.775-.55,2.909,2.909,0,0,1,.95-.212,2.635,2.635,0,0,1,.3-.013A2.614,2.614,0,0,1,101.48-6.25Zm7.945,0a2.165,2.165,0,0,1,.675,1.2,9,9,0,0,1,.15,1.787V0h-1.525V-3.2a2.639,2.639,0,0,0-.538-1.937,1.489,1.489,0,0,0-1.062-.388,1.4,1.4,0,0,0-.95.313,1.459,1.459,0,0,0-.537.938,8.084,8.084,0,0,0-.075,1.337V0H104.05V-6.75h1.338V-6l.137-.163a2,2,0,0,1,.775-.55,2.909,2.909,0,0,1,.95-.212,2.635,2.635,0,0,1,.3-.013A2.614,2.614,0,0,1,109.425-6.25ZM116.257,0V-.888a2.8,2.8,0,0,1-1.006.819,3.367,3.367,0,0,1-1.406.256,2.255,2.255,0,0,1-1.619-.575,2,2,0,0,1-.606-1.525,1.862,1.862,0,0,1,1.3-1.863,6.787,6.787,0,0,1,1.15-.319q.625-.119,1.588-.256l.425-.062a1.145,1.145,0,0,0-.425-.869,1.519,1.519,0,0,0-.937-.281,1.815,1.815,0,0,0-.925.231,1.3,1.3,0,0,0-.575.706l-1.362-.425a2.988,2.988,0,0,1,1.094-1.363,3.109,3.109,0,0,1,1.819-.525,3.158,3.158,0,0,1,1.719.431,2.231,2.231,0,0,1,.944,1.256,4.343,4.343,0,0,1,.137,1.188V0Zm-.412-1.9a2.732,2.732,0,0,0,.238-1.275q-.638.088-1.138.175t-.912.2a1.832,1.832,0,0,0-.694.356.729.729,0,0,0-.244.569.8.8,0,0,0,.287.619,1.161,1.161,0,0,0,.8.256,1.975,1.975,0,0,0,.975-.25A1.786,1.786,0,0,0,115.845-1.9Zm8.845-4.35a2.165,2.165,0,0,1,.675,1.2,9,9,0,0,1,.15,1.787V0H123.99V-3.2a2.639,2.639,0,0,0-.538-1.937,1.489,1.489,0,0,0-1.062-.388,1.4,1.4,0,0,0-.95.313,1.566,1.566,0,0,0-.537.938,8.084,8.084,0,0,0-.075,1.337V0h-1.512V-9h1.338v3l.137-.163a2.115,2.115,0,0,1,.781-.55,2.85,2.85,0,0,1,.944-.212,2.635,2.635,0,0,1,.3-.013A2.614,2.614,0,0,1,124.69-6.25Z" transform="translate(0 12.853)" fill="#2076b8"/>
    <g id="Group_11" data-name="Group 11" transform="translate(129.923)">
      <path id="Path_29" data-name="Path 29" d="M683.955,1836.75l6.141,4.006-1.371,5.719-7.8-4.912Z" transform="translate(-672.019 -1833.069)" fill="#fec110"/>
      <path id="Path_30" data-name="Path 30" d="M692.293,1852.847h-3.334l.946-1.5Z" transform="translate(-675.529 -1839.443)" fill="#f2b815"/>
      <path id="Path_31" data-name="Path 31" d="M683.107,1849.042l-4.006,6.141-5.719-1.371,4.911-7.8Z" transform="translate(-668.724 -1837.113)" fill="#ef4339"/>
      <path id="Path_32" data-name="Path 32" d="M673.387,1857.38v-3.334l1.5.946Z" transform="translate(-668.727 -1840.623)" fill="#e93e35"/>
      <path id="Path_33" data-name="Path 33" d="M671.254,1848.22l-6.141-4.006,1.371-5.719,7.8,4.911Z" transform="translate(-665.113 -1833.831)" fill="#4455a5"/>
      <path id="Path_34" data-name="Path 34" d="M667.444,1838.443H670.8l-.971,1.5Z" transform="translate(-666.131 -1833.808)" fill="#404ba1"/>
      <path id="Path_35" data-name="Path 35" d="M671.664,1836.355l4.006-6.141,5.719,1.371-4.911,7.8Z" transform="translate(-667.974 -1830.214)" fill="#49b050"/>
      <path id="Path_36" data-name="Path 36" d="M687.818,1832.545v3.353l-1.5-.965Z" transform="translate(-674.374 -1831.232)" fill="#3da445"/>
    </g>
  </g>
</svg>
