<svg xmlns="http://www.w3.org/2000/svg" width="43.379" height="32.726" viewBox="0 0 43.379 32.726">
  <g id="ProdukService" transform="translate(1.507 1.5)">
    <path id="Path_105" data-name="Path 105" d="M268.247,56.18a2.228,2.228,0,0,1-2.228-2.229V42.491h23.376V53.952a2.229,2.229,0,0,1-2.228,2.229H285.49" transform="translate(-261.523 -38.976)" fill="none" stroke="#2d85e9" stroke-linecap="round" stroke-linejoin="round" stroke-width="3"/>
    <line id="Line_17" data-name="Line 17" y1="3.73" transform="translate(16.186 4.242)" fill="none" stroke="#2d85e9" stroke-linecap="round" stroke-linejoin="round" stroke-width="3"/>
    <path id="Path_106" data-name="Path 106" d="M264.324,41.166l-4.5-3.515h11.69l4.5,3.515" transform="translate(-259.829 -37.651)" fill="none" stroke="#2d85e9" stroke-linecap="round" stroke-linejoin="round" stroke-width="3"/>
    <path id="Path_107" data-name="Path 107" d="M287.391,38.166l.659-.515h11.69l-4.5,3.515" transform="translate(-267.374 -37.651)" fill="none" stroke="#2d85e9" stroke-linecap="round" stroke-linejoin="round" stroke-width="3"/>
    <path id="Path_108" data-name="Path 108" d="M263.752,64.705l6.491.19,6.8-8.686a2.016,2.016,0,0,1,2.564-.221l.237.165a2.017,2.017,0,0,1,.723,2.409l-2.761,6.38,8.7.045,8.563-6.653a3.233,3.233,0,0,1,2.979-.522l1.482.481a.954.954,0,0,1,.381,1.581l-12.3,12.3-27.783.121" transform="translate(-259.829 -42.572)" fill="none" stroke="#2d85e9" stroke-linecap="round" stroke-linejoin="round" stroke-width="3"/>
  </g>
</svg>
