<svg xmlns="http://www.w3.org/2000/svg" width="58.57" height="43.92" viewBox="0 0 58.57 43.92">
  <defs>
    <style>
      .cls-1 {
        fill: none;
        stroke: #fff;
        stroke-linecap: round;
        stroke-linejoin: round;
        stroke-width: 3px;
      }
    </style>
  </defs>
  <g id="Layer_2" data-name="Layer 2">
    <g id="Layer_1-2" data-name="Layer 1">
      <g>
        <path class="cls-1" d="M10.76,25.19a3.06,3.06,0,0,1-3.07-3.07V6.34H39.88V22.12a3.07,3.07,0,0,1-3.07,3.07H34.5"/>
        <line class="cls-1" x1="23.79" y1="12.48" x2="23.79" y2="7.34"/>
        <polyline class="cls-1" points="7.69 6.34 1.5 1.5 17.6 1.5 23.79 6.34"/>
        <polyline class="cls-1" points="29.06 2.21 29.97 1.5 46.07 1.5 39.88 6.34"/>
        <path class="cls-1" d="M6.9,32l8.94.26,9.36-12A2.77,2.77,0,0,1,28.73,20l.33.23a2.79,2.79,0,0,1,1,3.32l-3.8,8.78,12,.06L50,23.2a4.47,4.47,0,0,1,4.1-.72l2,.66a1.32,1.32,0,0,1,.53,2.18L39.76,42.25,1.5,42.42"/>
      </g>
    </g>
  </g>
</svg>
