<svg xmlns="http://www.w3.org/2000/svg" width="38.396" height="21.814" viewBox="0 0 38.396 21.814">
  <g id="Produk" transform="translate(1.5 1.5)">
    <path id="Rectangle_527" data-name="Rectangle 527" d="M0,0H25.563a0,0,0,0,1,0,0V13.132a1.838,1.838,0,0,1-1.838,1.838H1.838A1.838,1.838,0,0,1,0,13.132V0A0,0,0,0,1,0,0Z" transform="translate(4.916 3.844)" fill="none" stroke="#2d85e9" stroke-linecap="round" stroke-linejoin="round" stroke-width="3"/>
    <line id="Line_14" data-name="Line 14" y1="3.011" transform="translate(17.766 15.514)" fill="#fff" stroke="#2d85e9" stroke-linecap="round" stroke-linejoin="round" stroke-width="3"/>
    <line id="Line_15" data-name="Line 15" y1="0.666" transform="translate(17.7 10.998)" fill="#fff" stroke="#2d85e9" stroke-linecap="round" stroke-linejoin="round" stroke-width="3"/>
    <line id="Line_16" data-name="Line 16" y1="4.079" transform="translate(17.7 3.844)" fill="#fff" stroke="#2d85e9" stroke-linecap="round" stroke-linejoin="round" stroke-width="3"/>
    <path id="Path_103" data-name="Path 103" d="M257.937,100.967l-4.916-3.844H265.8l4.916,3.844" transform="translate(-253.021 -97.123)" fill="none" stroke="#2d85e9" stroke-linecap="round" stroke-linejoin="round" stroke-width="3"/>
    <path id="Path_104" data-name="Path 104" d="M293.078,97.678l.711-.556h12.784l-4.916,3.844" transform="translate(-271.178 -97.123)" fill="none" stroke="#2d85e9" stroke-linecap="round" stroke-linejoin="round" stroke-width="3"/>
  </g>
</svg>
