<svg xmlns="http://www.w3.org/2000/svg" width="67.74" height="37.41" viewBox="0 0 67.74 37.41">
  <defs>
    <style>
      .cls-1 {
        fill: none;
      }

      .cls-1, .cls-2 {
        stroke: #fff;
        stroke-linecap: round;
        stroke-linejoin: round;
        stroke-width: 3px;
      }

      .cls-2 {
        fill: #fff;
      }
    </style>
  </defs>
  <g id="Layer_2" data-name="Layer 2">
    <g id="Layer_1-2" data-name="Layer 1">
      <g>
        <path class="cls-1" d="M10.49,8.53H57.25a0,0,0,0,1,0,0V34.07a1.84,1.84,0,0,1-1.84,1.84H12.33a1.84,1.84,0,0,1-1.84-1.84V8.53A0,0,0,0,1,10.49,8.53Z"/>
        <line class="cls-2" x1="33.87" y1="35.72" x2="33.87" y2="27.79"/>
        <line class="cls-2" x1="33.87" y1="22.83" x2="33.87" y2="20.32"/>
        <line class="cls-2" x1="33.87" y1="15.99" x2="33.87" y2="8.53"/>
        <polyline class="cls-1" points="10.49 8.53 1.5 1.5 24.88 1.5 33.87 8.53"/>
        <polyline class="cls-1" points="41.56 2.52 42.86 1.5 66.24 1.5 57.25 8.53"/>
      </g>
    </g>
  </g>
</svg>
