<svg xmlns="http://www.w3.org/2000/svg" width="42.705" height="19.848" viewBox="0 0 42.705 19.848">
  <g id="Service" transform="translate(1.506 1.5)">
    <path id="Path_109" data-name="Path 109" d="M335.045,109.534l6.383.186,6.685-8.541a1.983,1.983,0,0,1,2.521-.217l.234.162a1.985,1.985,0,0,1,.711,2.369l-2.716,6.272,8.557.044,8.42-6.542a3.178,3.178,0,0,1,2.93-.514l1.457.473a.938.938,0,0,1,.374,1.555l-12.092,12.092-27.319.119" transform="translate(-331.188 -100.151)" fill="none" stroke="#2d85e9" stroke-linecap="round" stroke-linejoin="round" stroke-width="3"/>
    <path id="Path_110" data-name="Path 110" d="M373.813,105.733l4.373-4.918a3.066,3.066,0,0,1,2.292-1.029h1.988a.505.505,0,0,1,.469.694l-.593,1.467" transform="translate(-350.14 -99.785)" fill="none" stroke="#2d85e9" stroke-linecap="round" stroke-linejoin="round" stroke-width="3"/>
  </g>
</svg>
